<?xml version="1.0" encoding="UTF-8"?>
<svg version="1.1" xmlns="http://www.w3.org/2000/svg" width="256" height="256">
<path d="M0 0 C84.48 0 168.96 0 256 0 C256 84.48 256 168.96 256 256 C171.52 256 87.04 256 0 256 C0 171.52 0 87.04 0 0 Z " fill="#EF5638" transform="translate(0,0)"/>
<path d="M0 0 C46.86 0 93.72 0 142 0 C142 4.29 142 8.58 142 13 C136.06 13.495 136.06 13.495 130 14 C129.67 37.43 129.34 60.86 129 85 C125.04 85 121.08 85 117 85 C117 61.24 117 37.48 117 13 C112.71 13 108.42 13 104 13 C104 36.76 104 60.52 104 85 C99.38 85 94.76 85 90 85 C90 61.57 90 38.14 90 14 C85.71 14 81.42 14 77 14 C77 37.43 77 60.86 77 85 C73.04 85 69.08 85 65 85 C65 76.42 65 67.84 65 59 C61.68004931 62.31995069 58.62486036 65.54152238 55.5859375 69.08203125 C41.1127917 85.25313607 41.1127917 85.25313607 33.39453125 86.375 C28.79964805 86.53171095 24.48534707 85.96883497 20 85 C24.53924896 79.48354534 29.45036377 74.64259035 34.6796875 69.78515625 C37.21148531 67.37597205 39.73623066 64.95954084 42.26074219 62.54272461 C44.00124381 60.89145864 45.75490159 59.25394837 47.52148438 57.63061523 C50.09220999 55.26141649 52.60666793 52.84287117 55.1171875 50.41015625 C55.90769501 49.70536636 56.69820251 49.00057648 57.51266479 48.27442932 C61.88768634 43.92631154 63.39911467 40.71584393 63.53175545 34.6369009 C63.47502785 31.4070645 63.2814317 28.21836566 63 25 C62.25275665 25.75168457 61.50551331 26.50336914 60.73562622 27.27783203 C53.70714348 34.34678534 46.67344092 41.41050709 39.63453865 48.46908569 C36.01558042 52.09849961 32.39851357 55.72975817 28.78564453 59.36523438 C25.3016721 62.87087159 21.81289554 66.37165961 18.3206749 69.86907959 C16.98642082 71.20704089 15.65393384 72.5467667 14.32321548 73.88824463 C12.46502058 75.76086981 10.60075029 77.6272312 8.73486328 79.4921875 C8.18100952 80.05323181 7.62715576 80.61427612 7.05651855 81.19232178 C3.22810432 85 3.22810432 85 1 85 C-0.82341143 69.15159918 -0.82341143 69.15159918 3.01855469 63.37249756 C5.82395384 59.88407736 9.08208265 56.88583186 12.375 53.8671875 C13.54476794 52.73107817 14.7105626 51.59086501 15.87255859 50.44680786 C18.91191082 47.47552649 22.00126251 44.56233226 25.10522461 41.65881348 C28.27476639 38.67488653 31.39268706 35.63800413 34.515625 32.60546875 C40.62837159 26.68459402 46.79508415 20.82420674 53 15 C41.31395016 13.71466931 41.31395016 13.71466931 30.96484375 18.12109375 C29.57801877 19.51717194 28.23566512 20.9586203 26.9375 22.4375 C26.20926025 23.19216553 25.48102051 23.94683105 24.73071289 24.72436523 C22.44346105 27.11234009 20.22277056 29.55205312 18 32 C16.45205724 33.64193426 14.90000009 35.2799999 13.34375 36.9140625 C9.9552186 40.47719591 6.60888562 44.07510383 3.29663086 47.70922852 C2 49 2 49 1 49 C-1.2372001 33.60474895 -1.2372001 33.60474895 2.47216797 27.62792969 C6.47570317 22.84880767 11.13463341 18.87491696 16 15 C10.72 14.67 5.44 14.34 0 14 C0 9.38 0 4.76 0 0 Z " fill="#FDF9F7" transform="translate(57,112)"/>
<path d="M0 0 C46.86 0 93.72 0 142 0 C142 4.62 142 9.24 142 14 C95.14 14 48.28 14 0 14 C0 9.38 0 4.76 0 0 Z " fill="#FDF7F4" transform="translate(58,86)"/>
<path d="M0 0 C46.53 0 93.06 0 141 0 C141 4.29 141 8.58 141 13 C94.47 13 47.94 13 0 13 C0 8.71 0 4.42 0 0 Z " fill="#FEFDFB" transform="translate(58,61)"/>
<path d="M0 0 C46.86 0 93.72 0 142 0 C142 0.33 142 0.66 142 1 C95.8 1 49.6 1 2 1 C2.33 4.96 2.66 8.92 3 13 C8.28 13 13.56 13 19 13 C19.33 13.66 19.66 14.32 20 15 C16.66666667 18.33333333 13.33333333 21.66666667 10 25 C9.154375 25.9075 8.30875 26.815 7.4375 27.75 C5.01446135 29.98665106 4.08718925 30.3995319 1 31 C5.70358807 25.33157335 10.75121907 20.16925394 16 15 C10.72 14.67 5.44 14.34 0 14 C0 9.38 0 4.76 0 0 Z " fill="#FFF3EC" transform="translate(57,112)"/>
<path d="M0 0 C0.99 0.33 1.98 0.66 3 1 C3.06942079 10.09228651 3.12277071 19.18448221 3.15543652 28.27697563 C3.17111216 32.49871028 3.19238472 36.72026402 3.22631836 40.94189453 C3.25884463 45.01378286 3.2768387 49.08549685 3.28463173 53.15750504 C3.29018741 54.71330639 3.30103596 56.26909788 3.31719017 57.82482529 C3.33887574 59.99915149 3.34197077 62.17275154 3.34057617 64.34716797 C3.34723801 65.58626923 3.35389984 66.82537048 3.36076355 68.10202026 C3.24171158 69.05835358 3.12265961 70.01468689 3 71 C-0.64418341 73.42945561 -1.92923364 73.0828781 -6.1875 72.625 C-7.27417969 72.51414062 -8.36085937 72.40328125 -9.48046875 72.2890625 C-10.31191406 72.19367188 -11.14335937 72.09828125 -12 72 C-12 71.67 -12 71.34 -12 71 C-8.04 71 -4.08 71 0 71 C0 47.57 0 24.14 0 0 Z " fill="#E97D69" transform="translate(186,126)"/>
<path d="M0 0 C0.99 0.33 1.98 0.66 3 1 C4.66202444 7.52498485 5.39300935 13.56918201 3 20 C-0.40397012 24.80867807 -4.3697042 28.87926027 -8.625 32.9375 C-9.17341553 33.46077881 -9.72183105 33.98405762 -10.28686523 34.52319336 C-15.56741902 39.49722011 -20.92652013 44.00765378 -27 48 C-28.36886951 49.29682374 -29.7169291 50.61823134 -31 52 C-31.66 51.67 -32.32 51.34 -33 51 C-32.58657349 50.62654449 -32.17314697 50.25308899 -31.74719238 49.86831665 C-27.40960174 45.93242928 -23.13959617 41.93176472 -18.90087891 37.88964844 C-17.31628703 36.39496934 -15.71583424 34.91690646 -14.09912109 33.45703125 C-3.90070735 24.78491206 -3.90070735 24.78491206 1.03125 12.88183594 C1.19233795 8.49123425 0.75558221 4.32170126 0 0 Z " fill="#FCE4DC" transform="translate(120,135)"/>
<path d="M0 0 C0 5.61 0 11.22 0 17 C-0.99 17.495 -0.99 17.495 -2 18 C-2 13.71 -2 9.42 -2 5 C-11.56803261 12.32600109 -11.56803261 12.32600109 -18 22 C-19.4103177 23.22427579 -20.88148931 24.37871813 -22.375 25.5 C-31.64770872 32.85675831 -39.72718545 41.55990191 -48 50 C-48.66 49.67 -49.32 49.34 -50 49 C-43.63139084 42.60826963 -37.26012102 36.21920707 -30.88539219 29.83358002 C-27.92576717 26.86872568 -24.96708389 23.90294388 -22.01049805 20.93505859 C-19.15977045 18.07350384 -16.3066411 15.21436463 -13.45179558 12.35691833 C-12.36042452 11.26369271 -11.26993717 10.16958417 -10.18033028 9.07460022 C-8.65970736 7.54676915 -7.13603562 6.02204459 -5.61157227 4.49804688 C-4.74331314 3.62756714 -3.87505402 2.7570874 -2.98048401 1.86022949 C-1 0 -1 0 0 0 Z " fill="#CF583F" transform="translate(121,136)"/>
<path d="M0 0 C0.33 0 0.66 0 1 0 C1 4.29 1 8.58 1 13 C6.94 13 12.88 13 19 13 C19.33 13.66 19.66 14.32 20 15 C16.66666667 18.33333333 13.33333333 21.66666667 10 25 C9.154375 25.9075 8.30875 26.815 7.4375 27.75 C5.01446135 29.98665106 4.08718925 30.3995319 1 31 C5.70358807 25.33157335 10.75121907 20.16925394 16 15 C10.72 14.67 5.44 14.34 0 14 C0 9.38 0 4.76 0 0 Z " fill="#F4C7BD" transform="translate(57,112)"/>
<path d="M0 0 C-3.70148111 4.50809928 -7.40649675 8.39081887 -12 12 C-12 10.68 -12 9.36 -12 8 C-11.01 7.67 -10.02 7.34 -9 7 C-8.67 6.34 -8.34 5.68 -8 5 C-7.34 5 -6.68 5 -6 5 C-6.33 3.68 -6.66 2.36 -7 1 C-11.51332589 0.93643203 -15.48017713 0.88884655 -19.22265625 3.625 C-20.91948006 5.35318195 -22.50085114 7.09876155 -24 9 C-24.66 8.67 -25.32 8.34 -26 8 C-19.48215355 -2.20977345 -10.8312755 -0.83317504 0 0 Z " fill="#C4573E" transform="translate(111,126)"/>
<path d="M0 0 C6.27 0 12.54 0 19 0 C17.12352172 7.50591311 13.29421007 10.88037307 7 15 C5.6783165 15.68947441 4.34807132 16.36366208 3 17 C7.4142529 11.70289652 12.08136553 6.83383042 17 2 C11.39 1.67 5.78 1.34 0 1 C0 0.67 0 0.34 0 0 Z " fill="#F8D5CC" transform="translate(93,125)"/>
<path d="M0 0 C0 0.99 0 1.98 0 3 C-0.64453125 3.57234375 -1.2890625 4.1446875 -1.953125 4.734375 C-4.76815667 7.85024975 -4.59670752 10.11110301 -4.75 14.25 C-4.80671875 15.51328125 -4.8634375 16.7765625 -4.921875 18.078125 C-4.94765625 19.04234375 -4.9734375 20.0065625 -5 21 C-4.34 21 -3.68 21 -3 21 C-2.67 20.01 -2.34 19.02 -2 18 C-1.01 18.33 -0.02 18.66 1 19 C-0.62339805 20.70884005 -2.29319053 22.37446717 -4 24 C-4.66 24 -5.32 24 -6 24 C-6.16286586 21.12270306 -6.28124242 18.25469706 -6.375 15.375 C-6.42527344 14.56675781 -6.47554687 13.75851563 -6.52734375 12.92578125 C-6.67307052 6.95098351 -6.67307052 6.95098351 -4.63769531 4.07519531 C-2.9765625 2.4140625 -2.9765625 2.4140625 0 0 Z " fill="#FCE3D8" transform="translate(64,173)"/>
<path d="M0 0 C0.66 0 1.32 0 2 0 C2 8.25 2 16.5 2 25 C1.67 25 1.34 25 1 25 C1 18.07 1 11.14 1 4 C-0.65 5.32 -2.3 6.64 -4 8 C-4.66 7.67 -5.32 7.34 -6 7 C-5.04882866 5.8274869 -4.08882991 4.66212985 -3.125 3.5 C-2.59132813 2.8503125 -2.05765625 2.200625 -1.5078125 1.53125 C-0.76144531 0.77328125 -0.76144531 0.77328125 0 0 Z " fill="#CA5842" transform="translate(119,172)"/>
<path d="M0 0 C0.33 0 0.66 0 1 0 C1 4.29 1 8.58 1 13 C1.99 12.34 2.98 11.68 4 11 C4.99 11.33 5.98 11.66 7 12 C4.69 13.98 2.38 15.96 0 18 C0 12.06 0 6.12 0 0 Z " fill="#FDEADF" transform="translate(58,143)"/>
<path d="M0 0 C5.28 0 10.56 0 16 0 C14.35 1.98 12.7 3.96 11 6 C10.64808594 5.03320312 10.64808594 5.03320312 10.2890625 4.046875 C9.18838927 1.7922092 9.18838927 1.7922092 6.8359375 1.390625 C5.61777344 1.32101563 5.61777344 1.32101563 4.375 1.25 C3.14910156 1.16492188 3.14910156 1.16492188 1.8984375 1.078125 C1.27195313 1.05234375 0.64546875 1.0265625 0 1 C0 0.67 0 0.34 0 0 Z " fill="#CC563E" transform="translate(58,126)"/>
<path d="M0 0 C-1.64281162 1.66964521 -3.28932761 3.3356464 -4.9375 5 C-5.85402344 5.928125 -6.77054688 6.85625 -7.71484375 7.8125 C-10 10 -10 10 -11 10 C-11 8.35 -11 6.7 -11 5 C-10.01 5 -9.02 5 -8 5 C-7.7525 4.195625 -7.505 3.39125 -7.25 2.5625 C-6 0 -6 0 -4 -0.875 C-2 -1 -2 -1 0 0 Z " fill="#D35941" transform="translate(68,170)"/>
<path d="M0 0 C1.32 0 2.64 0 4 0 C3.43040847 3.62613199 2.07625466 5.25517741 -0.5625 7.75 C-1.52349609 8.67039063 -1.52349609 8.67039063 -2.50390625 9.609375 C-2.99761719 10.06828125 -3.49132812 10.5271875 -4 11 C-4.33 9.68 -4.66 8.36 -5 7 C-4.01 6.67 -3.02 6.34 -2 6 C-1.67 5.34 -1.34 4.68 -1 4 C-0.34 4 0.32 4 1 4 C0.67 2.68 0.34 1.36 0 0 Z " fill="#D65940" transform="translate(104,127)"/>
<path d="M0 0 C0.99 0.33 1.98 0.66 3 1 C2.06725891 2.12894876 1.12859878 3.25300876 0.1875 4.375 C-0.33457031 5.00148437 -0.85664062 5.62796875 -1.39453125 6.2734375 C-3 8 -3 8 -6 10 C-6 8.35 -6 6.7 -6 5 C-5.38125 4.9175 -4.7625 4.835 -4.125 4.75 C-1.81562433 4.18741541 -1.81562433 4.18741541 -0.75 1.9375 C-0.5025 1.298125 -0.255 0.65875 0 0 Z " fill="#D45942" transform="translate(88,145)"/>
<path d="M0 0 C0.33 0.99 0.66 1.98 1 3 C-3.455 6.96 -3.455 6.96 -8 11 C-8.66 10.67 -9.32 10.34 -10 10 C-6.7 6.7 -3.4 3.4 0 0 Z " fill="#FEE1D5" transform="translate(97,176)"/>
<path d="M0 0 C0.99 0.33 1.98 0.66 3 1 C0.69 3.31 -1.62 5.62 -4 8 C-4.33 7.01 -4.66 6.02 -5 5 C-4.34 5 -3.68 5 -3 5 C-2.87625 4.360625 -2.7525 3.72125 -2.625 3.0625 C-2.41875 2.381875 -2.2125 1.70125 -2 1 C-1.34 0.67 -0.68 0.34 0 0 Z " fill="#F8D9CE" transform="translate(110,179)"/>
<path d="M0 0 C0.99 0.33 1.98 0.66 3 1 C-0.465 3.97 -0.465 3.97 -4 7 C-4 5.68 -4 4.36 -4 3 C-3.01 3 -2.02 3 -1 3 C-0.67 2.01 -0.34 1.02 0 0 Z " fill="#F8D8CA" transform="translate(102,187)"/>
<path d="M0 0 C0.33 0.66 0.66 1.32 1 2 C0 5 0 5 -3 7 C-3.99 6.67 -4.98 6.34 -6 6 C-4.02 4.02 -2.04 2.04 0 0 Z " fill="#FADBD3" transform="translate(64,136)"/>
<path d="M0 0 C0.99 0.33 1.98 0.66 3 1 C-0.465 3.97 -0.465 3.97 -4 7 C-4 6.01 -4 5.02 -4 4 C-3.34 4 -2.68 4 -2 4 C-2 3.34 -2 2.68 -2 2 C-1.34 2 -0.68 2 0 2 C0 1.34 0 0.68 0 0 Z " fill="#F9D9CF" transform="translate(83,170)"/>
</svg>
